<svg xmlns="http://www.w3.org/2000/svg" viewBox="0 0 448 512"><path fill="#C13584" d="M224.1 141c-63.6 0-115.1 51.5-115.1 115.1S160.5 371.3 224.1 371.3 339.2 319.8 339.2 256.1 287.7 141 224.1 141zm0 190.1c-41.4 0-75-33.6-75-75s33.6-75 75-75 75 33.6 75 75-33.6 75-75 75zm146.4-194.3c0 14.9-12 26.9-26.9 26.9s-26.9-12-26.9-26.9 12-26.9 26.9-26.9 26.9 12 26.9 26.9zm76.1 27.2c-.2-54.6-4.9-97.6-28.3-121-23.4-23.4-66.4-28.1-121-28.3-47.6-.2-190.4-.2-238 0-54.6.2-97.6 4.9-121 28.3-23.4 23.4-28.1 66.4-28.3 121-.2 47.6-.2 190.4 0 238 0 54.6 4.9 97.6 28.3 121 23.4 23.4 66.4 28.1 121 28.3 47.6.2 190.4.2 238 0 54.6-.2 97.6-4.9 121-28.3 23.4-23.4 28.1-66.4 28.3-121 .2-47.6.2-190.4 0-238zM398.8 388c-7.8 19.5-22.8 34.5-42.3 42.3-29.3 11.7-98.8 9-132.5 9s-103.2 2.6-132.5-9c-19.5-7.8-34.5-22.8-42.3-42.3-11.7-29.3-9-98.8-9-132.5s-2.6-103.2 9-132.5c7.8-19.5 22.8-34.5 42.3-42.3 29.3-11.7 98.8-9 132.5-9s103.2-2.6 132.5 9c19.5 7.8 34.5 22.8 42.3 42.3 11.7 29.3 9 98.8 9 132.5s2.6 103.2-9 132.5z"/></svg>